<?xml version="1.0" encoding="utf-8"?>
<!-- Uploaded to: SVG Repo, www.svgrepo.com, Generator: SVG Repo Mixer Tools -->
<svg width="800px" height="800px" viewBox="-9.71 0 78.351 78.351" xmlns="http://www.w3.org/2000/svg">
  <g id="Group_1" data-name="Group 1" transform="translate(-156.417 -147.06)">
    <path id="Path_1" data-name="Path 1" d="M190.084,213.461h-8.394l1.552-22.908h5.29Z" fill="#814dff"/>
    <path id="Path_2" data-name="Path 2" d="M190.62,187.11c0,2.614-2.119,6.488-4.734,6.488s-4.733-3.874-4.733-6.488,2.119-2.98,4.733-2.98S190.62,184.495,190.62,187.11Z" fill="#814dff"/>
    <path id="Path_3" data-name="Path 3" d="M200.039,174.539c0,9.646-6.337,19.4-14.153,19.4s-14.152-9.755-14.152-19.4,6.336-15.529,14.152-15.529S200.039,164.894,200.039,174.539Z" fill="none" stroke="#000000" stroke-miterlimit="10" stroke-width="3" opacity="0.15"/>
    <path id="Path_4" data-name="Path 4" d="M196.726,187.958c10.062,3,17.13,9.507,17.13,13.326V223.04a.871.871,0,0,1-.871.871h-54.2a.871.871,0,0,1-.871-.871V201.284c0-3.814,7.039-10.306,17.075-13.314" fill="none" stroke="#000000" stroke-linecap="round" stroke-miterlimit="10" stroke-width="3" opacity="0.15"/>
    <path id="Path_5" data-name="Path 5" d="M200.039,164.09c0,9.645-6.337,19.4-14.153,19.4s-14.152-9.755-14.152-19.4,6.336-15.53,14.152-15.53S200.039,154.444,200.039,164.09Z" fill="none" stroke="#000000" stroke-miterlimit="10" stroke-width="3"/>
    <path id="Path_6" data-name="Path 6" d="M196.726,177.509c10.062,3,17.13,9.507,17.13,13.326v21.756a.871.871,0,0,1-.871.87h-54.2a.871.871,0,0,1-.871-.87V190.835c0-3.814,7.039-10.307,17.075-13.315" fill="none" stroke="#000000" stroke-linecap="round" stroke-miterlimit="10" stroke-width="3"/>
  </g>
</svg>